<svg xmlns="http://www.w3.org/2000/svg" width="160" height="23" viewBox="0 0 160 23"><g><g><g><path fill="#ffffff" d="M0 0h2.347v8.641L11.551 0h3.091L3.584 10.331l11.919 12.694h-3.065L2.347 12.301v10.724H0z"/></g><g><path fill="#ffffff" d="M18.955 0H32.15v2.254H21.256V9.47h10.8v2.254h-10.8v9.047h10.8v2.254H18.955z"/></g><g><path fill="#ffffff" d="M36.141 23.025V0h.501l15.324 17.65V0h2.27v23.025h-.517L38.52 5.591v17.434z"/></g><g><path fill="#ffffff" d="M83.553 0h2.348v8.641L95.104 0h3.092L87.137 10.331l11.919 12.694h-3.065l-10.09-10.724v10.724h-2.348z"/></g><g><path fill="#ffffff" d="M115.535 13.227h-7.872l3.945-8.335zM111.336 0l-10.879 23.025h2.567l3.587-7.576h9.919l3.622 7.576h2.485L111.899 0z"/></g><g><path fill="#ffffff" d="M123.921 2.254V0h12.615v2.254h-5.134v20.771h-2.347V2.254z"/></g><g><path fill="#ffffff" d="M152.897 13.227h-7.872l3.946-8.335zM148.698 0L137.82 23.025h2.567l3.587-7.576h9.918l3.623 7.576H160L149.262 0z"/></g><g><path fill="#80b918" d="M68.955 4.892l3.927 8.335H65.01zM69.246 0h-.563L57.804 23.025h22.18z"/></g></g></g></svg>