<svg xmlns="http://www.w3.org/2000/svg" width="50" height="55" viewBox="0 0 50 55"><g><g><g><path fill="#80b918" d="M37.963 17.427c0 7.159-5.804 12.963-12.963 12.963-7.159 0-12.963-5.804-12.963-12.963 0-7.159 5.804-12.963 12.963-12.963 7.156.008 12.955 5.807 12.963 12.963zm-27.778 0c-.003 8.182 6.627 14.818 14.809 14.821 8.182.004 14.817-6.626 14.821-14.808a14.818 14.818 0 0 0-6.623-12.351l.943-1.633 1.604.926.926-1.604L31.854 0l-.926 1.604 1.603.926-.941 1.631a14.795 14.795 0 0 0-13.18 0l-.941-1.631 1.603-.926L18.146 0l-4.811 2.778.926 1.604 1.604-.926.943 1.633a14.815 14.815 0 0 0-6.623 12.338z"/></g><g><path fill="#80b918" d="M24.074 6.316h1.852v1.852h-1.852z"/></g><g><path fill="#80b918" d="M18.642 8.267l1.604-.926.926 1.604-1.604.926z"/></g><g><path fill="#80b918" d="M14.914 12.674l.926-1.604 1.604.926-.926 1.604z"/></g><g><path fill="#80b918" d="M13.889 16.501h1.852v1.852h-1.852z"/></g><g><path fill="#80b918" d="M14.914 22.18l1.604-.926.926 1.604-1.604.926z"/></g><g><path fill="#80b918" d="M18.642 26.587l.926-1.604 1.603.926-.926 1.604z"/></g><g><path fill="#80b918" d="M24.074 26.686h1.852v1.852h-1.852z"/></g><g><path fill="#80b918" d="M28.827 25.908l1.604-.926.925 1.604-1.603.925z"/></g><g><path fill="#80b918" d="M32.555 22.859l.926-1.603 1.604.926-.926 1.603z"/></g><g><path fill="#80b918" d="M34.259 16.501h1.852v1.852h-1.852z"/></g><g><path fill="#80b918" d="M32.555 11.995l1.604-.926.925 1.604-1.603.926z"/></g><g><path fill="#80b918" d="M28.828 8.946l.925-1.604 1.604.926-.926 1.604z"/></g><g><path fill="#80b918" d="M25 18.353h7.407v-1.852h-6.481v-6.482h-1.852v7.408c0 .511.415.926.926.926z"/></g><g><path fill="#80b918" d="M49.346 20.246l-7.407-2.28-.545 1.77 4.532 1.395-5.457 1.679.545 1.77 7.134-2.196v23.063l-22.222 6.837v-18.19h-1.852v18.19L1.852 45.447V22.384l7.135 2.196.545-1.77-5.458-1.679 4.531-1.395-.544-1.77-7.408 2.28a.925.925 0 0 0-.653.885v25c0 .406.265.765.654.885l24.074 7.407a.917.917 0 0 0 .544 0l24.074-7.407a.927.927 0 0 0 .654-.885v-25a.925.925 0 0 0-.654-.885z"/></g><g><path fill="#80b918" d="M18.519 36.686L7.407 33.267v-2.692l11.112 3.419zm.925 2.18a.926.926 0 0 0 .926-.926v-4.63a.927.927 0 0 0-.653-.885L6.754 28.436a.926.926 0 0 0-1.198.885v4.63c0 .407.265.765.653.885l12.963 3.989c.088.027.18.041.272.041z"/></g><g><path fill="#80b918" d="M42.593 33.267l-11.112 3.419v-2.692l11.112-3.419zm1.476-4.69a.928.928 0 0 0-.823-.141l-12.963 3.989a.927.927 0 0 0-.653.885v4.63a.926.926 0 0 0 1.198.885l12.963-3.989a.926.926 0 0 0 .653-.885v-4.63a.925.925 0 0 0-.375-.744z"/></g><g><path fill="#80b918" d="M36.77 45.259l1.853-.57.544 1.771-1.852.569z"/></g><g><path fill="#80b918" d="M40.475 44.119l1.852-.569.545 1.77-1.853.57z"/></g><g><path fill="#80b918" d="M44.179 42.98l1.853-.57.544 1.771-1.852.569z"/></g><g><path fill="#80b918" d="M12.7 47.009l.544-1.77 1.853.569-.545 1.771z"/></g><g><path fill="#80b918" d="M16.404 48.148l.544-1.771 1.852.57-.544 1.77z"/></g><g><path fill="#80b918" d="M20.107 49.286l.545-1.771 1.852.57-.545 1.77z"/></g></g></g></svg>