<svg xmlns="http://www.w3.org/2000/svg" width="50" height="54" viewBox="0 0 50 54"><g><g><g><path fill="#fff" d="M48.437 40.377L25.781 51.314V24.655l5.405-2.609a.78.78 0 1 0-.68-1.407L25 23.297l-2.167-1.046a.781.781 0 0 0-.679 1.407l2.065.997v26.659L1.563 40.377V13.718l17.252 8.329a.777.777 0 0 0 1.043-.364.781.781 0 0 0-.364-1.044L2.579 12.473l7.762-3.747 23.471 11.331.011.014v9.376a.781.781 0 0 0 1.121.703l5.846-2.822a.78.78 0 0 0 .441-.703v-9.428l7.206-3.479zm-8.768-22.426v8.183l-4.284 2.068v-8.183zM16.756 5.66l22.389 10.809-4.586 2.214L12.18 7.879zM25 1.649l22.421 10.824-6.499 3.138a.758.758 0 0 0-.132-.084L18.52 4.777zm24.558 10.12L25.34.078a.78.78 0 0 0-.68 0L.442 11.769a.783.783 0 0 0-.442.704v28.394c0 .3.172.574.442.704L24.66 53.263a.782.782 0 0 0 .68 0l24.218-11.692a.782.782 0 0 0 .442-.704V12.473c0-.3-.172-.573-.442-.704z"/></g><g><path fill="#fff" d="M8.011 37.347l-3.554-1.716a.781.781 0 1 0-.68 1.407l3.554 1.716a.782.782 0 1 0 .68-1.407z"/></g><g><path fill="#fff" d="M11.282 35.217l-6.82-3.292a.781.781 0 1 0-.68 1.407l6.82 3.293a.781.781 0 1 0 .68-1.408z"/></g></g></g></svg>