<svg xmlns="http://www.w3.org/2000/svg" width="51" height="50" viewBox="0 0 51 50"><g><g><g><path fill="#80b918" d="M42.286 40.438c.976-1.752 1.959-3.478 2.462-4.295.006.857 0 2.547-.011 4.295zm3.162 4.11h.007a.742.742 0 0 0 .742-.736l.015-1.89h.4a.742.742 0 1 0 0-1.484h-.39c.013-2.199.021-4.65-.005-4.973-.051-.603-.405-1.093-.904-1.247-.236-.073-.846-.167-1.416.533-.505.619-3.022 5.165-3.521 6.07a.74.74 0 0 0 .65 1.101h3.702l-.015 1.877a.742.742 0 0 0 .735.749z"/></g><g><path fill="#80b918" d="M36.983 39.165a101.352 101.352 0 0 1-2.708 3.714c-.545.714-.728.954-.597 1.382a.787.787 0 0 0 .512.517c.359.119 3.725.065 4.778.052a.742.742 0 0 0-.019-1.484c-1.117.014-2.313.022-3.179.02.5-.659 1.278-1.706 2.429-3.35.483-.689 1.124-1.817 1.124-2.701a3.022 3.022 0 0 0-3.018-3.019 3.024 3.024 0 0 0-2.962 2.435.742.742 0 0 0 1.457.286 1.534 1.534 0 0 1 3.039.255c-.013.037.029.628-.856 1.893z"/></g><g><path fill="#80b918" d="M34.722 12.251c.29.29.76.29 1.05 0l.859-.859a17.444 17.444 0 0 1 4.588 12.962l-.733-.839a.742.742 0 0 0-1.117.978l1.783 2.039a.755.755 0 0 0 1.064.194l2.285-1.647a.742.742 0 0 0-.868-1.204l-.94.677c.03-.438.046-.877.046-1.315 0-10.478-8.524-19.003-19.002-19.003S4.735 12.759 4.735 23.237c0 10.477 8.524 19.002 19.002 19.002 1.327 0 2.652-.138 3.939-.409a.743.743 0 0 0-.307-1.452c-.946.199-1.915.319-2.89.36v-1.224a.742.742 0 0 0-1.484 0v1.224a17.45 17.45 0 0 1-11.103-4.607l.859-.86a.741.741 0 1 0-1.049-1.049l-.86.859a17.453 17.453 0 0 1-4.607-11.103h1.224a.742.742 0 1 0 0-1.484H6.236a17.45 17.45 0 0 1 4.606-11.103l.86.86a.741.741 0 1 0 1.049-1.05l-.859-.859a17.45 17.45 0 0 1 11.103-4.607v1.223a.742.742 0 1 0 1.484 0V5.735a17.45 17.45 0 0 1 11.103 4.607l-.86.86a.743.743 0 0 0 0 1.049z"/></g><g><path fill="#80b918" d="M23.737 24.754a1.519 1.519 0 0 1 0-3.035 1.519 1.519 0 0 1 0 3.035zm8.443-2.26h-5.535a3.012 3.012 0 0 0-2.166-2.166v-8.602a.742.742 0 1 0-1.484 0v8.602a3.007 3.007 0 0 0-2.259 2.909 3.004 3.004 0 0 0 3.001 3.001 3.006 3.006 0 0 0 2.908-2.259h5.535a.742.742 0 0 0 0-1.485z"/></g><g><path fill="#80b918" d="M49.758 38.58z"/></g><g><path fill="#80b918" d="M30.086 33.705v10.341a21.724 21.724 0 0 1-6.349.943c-12.022 0-21.753-9.729-21.753-21.753 0-12.022 9.729-21.752 21.753-21.752 12.022 0 21.753 9.729 21.753 21.752 0 2.011-.275 3.998-.815 5.915H34.64a4.56 4.56 0 0 0-4.554 4.554zm19.672 6.861a.742.742 0 0 0-.742.742v3.702a3.073 3.073 0 0 1-3.07 3.07H34.64a3.073 3.073 0 0 1-3.069-3.07V33.705a3.073 3.073 0 0 1 3.069-3.07h11.306a3.073 3.073 0 0 1 3.07 3.07v4.134a.742.742 0 1 0 1.484 0v-4.134a4.56 4.56 0 0 0-4.289-4.546c.506-1.925.763-3.913.763-5.923C46.974 10.394 36.581 0 23.737 0 10.895 0 .5 10.392.5 23.236c0 12.843 10.393 23.237 23.237 23.237 2.172 0 4.316-.299 6.387-.89a4.559 4.559 0 0 0 4.517 3.981h11.305A4.56 4.56 0 0 0 50.5 45.01v-3.702a.742.742 0 0 0-.742-.742z"/></g></g></g></svg>