<svg xmlns="http://www.w3.org/2000/svg" width="50" height="50" viewBox="0 0 50 50"><g><g><g><path fill="#fff" d="M35.681 16.716a3.168 3.168 0 0 0-1.085-.192c-.789 0-1.53.288-2.085.81-.434.409-.951 1.147-.951 2.347v10.105a4.392 4.392 0 0 0-.757-.381c-1.038-.399-2.001-.355-2.71.123-.457.308-1.006.93-1.026 2.143v4.078l.001 1.004H11.783V27.62h8.992v1.421a.976.976 0 0 0 1.953 0V9.735a.976.976 0 0 0-1.953 0v1.421h-8.992V2.677c0-.399.324-.723.723-.723h3.602v1.044a3.005 3.005 0 0 0 3 3.003h9.248c1.654 0 3-1.347 3-3.003V1.954h3.602c.4 0 .723.324.723.723zM12.506 41.678a.724.724 0 0 1-.723-.723v-2.249H27.07v.114c0 1.276.773 2.158 1.624 2.858zM6.678 25.667c-.409-2.427-2.314-4.346-4.725-4.76v-3.038c2.411-.414 4.316-2.333 4.725-4.76h14.097v12.558zm-4.725 0v-2.764a3.862 3.862 0 0 1 2.731 2.764zm0-12.558h2.731a3.864 3.864 0 0 1-2.731 2.764zM18.061 1.954h11.342v1.044c0 .579-.469 1.049-1.047 1.049h-9.248c-.577 0-1.047-.47-1.047-1.049zm28.901 24.201c-.369 0-.739.065-1.088.194-.084-1.958-1.567-2.981-3.033-2.981-.431 0-.864.088-1.262.263-.443-1.329-1.657-2.018-2.86-2.018-.368 0-.737.065-1.085.192V2.677A2.679 2.679 0 0 0 34.958 0H12.506A2.68 2.68 0 0 0 9.83 2.677v8.479H.977a.976.976 0 0 0-.977.977v14.51c0 .54.437.977.977.977H9.83v13.335a2.68 2.68 0 0 0 2.676 2.676H31.03c1.203 1.48 1.203 2.766 1.203 4.371A2 2 0 0 0 34.23 50h1.719a.976.976 0 1 0 0-1.953H34.23c-.022 0-.045-.022-.045-.045 0-1.862 0-3.787-1.923-5.936-.456-.509-1.023-.923-1.572-1.323-1.037-.757-1.667-1.265-1.667-1.924l-.003-3.071v-4.052c.006-.278.067-.483.165-.549.128-.086.461-.094.916.081a2.267 2.267 0 0 1 1.459 2.133v3.109a.977.977 0 1 0 1.953 0V19.681c0-1.146.903-1.204 1.084-1.204.286 0 .559.102.748.28.223.21.337.521.337.924v11.283a.976.976 0 1 0 1.953 0v-6.195c0-1.145.903-1.203 1.084-1.203.286 0 .559.102.748.28.223.21.336.52.336.923V32a.977.977 0 0 0 1.954 0v-5.476c0-1.145.903-1.203 1.084-1.203.286 0 .56.102.748.28.223.21.336.52.336.923v6.508a.977.977 0 0 0 1.953 0v-3.72c0-1.146.904-1.204 1.085-1.204.286 0 .558.102.748.28.223.21.336.521.336.924v9.842c-.157 1.387-.48 2.017-.795 2.626-.377.733-.766 1.49-.766 3.064v3.158c0 .022-.024.045-.045.045h-1.719a.976.976 0 1 0 0 1.953h1.719a2 2 0 0 0 1.998-1.998v-3.158c0-1.101.219-1.526.55-2.17.361-.703.812-1.577 1.005-3.361a.924.924 0 0 0 .006-.105v-9.896c0-2.072-1.528-3.157-3.038-3.157z"/></g><g><path fill="#fff" d="M13.494 21.686c-1.253 0-2.273-1.031-2.273-2.298 0-1.267 1.02-2.298 2.273-2.298 1.254 0 2.273 1.031 2.273 2.298 0 1.267-1.019 2.298-2.273 2.298zm0-6.549c-2.33 0-4.226 1.907-4.226 4.251 0 2.344 1.896 4.251 4.226 4.251 2.331 0 4.226-1.907 4.226-4.251 0-2.344-1.895-4.251-4.226-4.251z"/></g><g><path fill="#fff" d="M40.337 48.047a.977.977 0 0 0 0 1.953h.003a.975.975 0 0 0 .975-.976.978.978 0 0 0-.978-.977z"/></g></g></g></svg>